<mxfile host="app.diagrams.net" agent="Mozilla/5.0 (Windows NT 10.0; Win64; x64) AppleWebKit/537.36 (KHTML, like Gecko) Chrome/135.0.0.0 Safari/537.36" version="26.2.13">
  <diagram name="Page-1" id="boCt7bAacbhy7Z8B6wcK">
    <mxGraphModel grid="1" page="1" gridSize="10" guides="1" tooltips="1" connect="1" arrows="1" fold="1" pageScale="1" pageWidth="850" pageHeight="1100" math="0" shadow="0">
      <root>
        <mxCell id="0" />
        <mxCell id="1" parent="0" />
        <mxCell id="yTIiG7DujcUhzpI4ZRod-1" value="branch" style="rounded=0;whiteSpace=wrap;html=1;" vertex="1" parent="1">
          <mxGeometry x="70" y="150" width="120" height="40" as="geometry" />
        </mxCell>
        <mxCell id="yTIiG7DujcUhzpI4ZRod-4" value="Br_location" style="ellipse;whiteSpace=wrap;html=1;" vertex="1" parent="1">
          <mxGeometry x="148" y="60" width="80" height="40" as="geometry" />
        </mxCell>
        <mxCell id="yTIiG7DujcUhzpI4ZRod-5" value="" style="endArrow=none;html=1;rounded=0;" edge="1" parent="1">
          <mxGeometry width="50" height="50" relative="1" as="geometry">
            <mxPoint x="130" y="150" as="sourcePoint" />
            <mxPoint x="180" y="100" as="targetPoint" />
          </mxGeometry>
        </mxCell>
        <mxCell id="yTIiG7DujcUhzpI4ZRod-7" value="" style="endArrow=none;html=1;rounded=0;exitX=0.5;exitY=0;exitDx=0;exitDy=0;" edge="1" parent="1" source="yTIiG7DujcUhzpI4ZRod-1">
          <mxGeometry width="50" height="50" relative="1" as="geometry">
            <mxPoint x="140" y="160" as="sourcePoint" />
            <mxPoint x="100" y="80" as="targetPoint" />
          </mxGeometry>
        </mxCell>
        <mxCell id="yTIiG7DujcUhzpI4ZRod-8" value="Br_Name" style="ellipse;whiteSpace=wrap;html=1;" vertex="1" parent="1">
          <mxGeometry x="60" y="40" width="80" height="40" as="geometry" />
        </mxCell>
        <mxCell id="yTIiG7DujcUhzpI4ZRod-9" value="" style="endArrow=none;html=1;rounded=0;" edge="1" parent="1">
          <mxGeometry width="50" height="50" relative="1" as="geometry">
            <mxPoint x="130" y="150" as="sourcePoint" />
            <mxPoint x="40" y="100" as="targetPoint" />
          </mxGeometry>
        </mxCell>
        <mxCell id="yTIiG7DujcUhzpI4ZRod-10" value="Br_Id" style="ellipse;whiteSpace=wrap;html=1;rotation=-15;fontStyle=4" vertex="1" parent="1">
          <mxGeometry x="-20" y="75" width="80" height="35" as="geometry" />
        </mxCell>
        <mxCell id="j-9qPvD1AJtOhM12_87O-46" style="edgeStyle=orthogonalEdgeStyle;shape=link;rounded=0;orthogonalLoop=1;jettySize=auto;html=1;exitX=1;exitY=0.5;exitDx=0;exitDy=0;entryX=0;entryY=0.5;entryDx=0;entryDy=0;" edge="1" parent="1" source="yTIiG7DujcUhzpI4ZRod-11" target="j-9qPvD1AJtOhM12_87O-45">
          <mxGeometry relative="1" as="geometry" />
        </mxCell>
        <mxCell id="j-9qPvD1AJtOhM12_87O-60" style="edgeStyle=orthogonalEdgeStyle;shape=link;rounded=0;orthogonalLoop=1;jettySize=auto;html=1;exitX=0.5;exitY=1;exitDx=0;exitDy=0;entryX=0.5;entryY=0;entryDx=0;entryDy=0;" edge="1" parent="1" source="yTIiG7DujcUhzpI4ZRod-11" target="j-9qPvD1AJtOhM12_87O-57">
          <mxGeometry relative="1" as="geometry" />
        </mxCell>
        <mxCell id="yTIiG7DujcUhzpI4ZRod-11" value="Track" style="rounded=0;whiteSpace=wrap;html=1;" vertex="1" parent="1">
          <mxGeometry x="420" y="160" width="120" height="40" as="geometry" />
        </mxCell>
        <mxCell id="yTIiG7DujcUhzpI4ZRod-12" value="" style="endArrow=none;html=1;rounded=0;" edge="1" parent="1">
          <mxGeometry width="50" height="50" relative="1" as="geometry">
            <mxPoint x="500" y="160" as="sourcePoint" />
            <mxPoint x="550" y="110" as="targetPoint" />
          </mxGeometry>
        </mxCell>
        <mxCell id="yTIiG7DujcUhzpI4ZRod-13" value="Tr_id" style="ellipse;whiteSpace=wrap;html=1;fontStyle=4" vertex="1" parent="1">
          <mxGeometry x="530" y="80" width="80" height="40" as="geometry" />
        </mxCell>
        <mxCell id="yTIiG7DujcUhzpI4ZRod-14" value="" style="endArrow=none;html=1;rounded=0;" edge="1" parent="1">
          <mxGeometry width="50" height="50" relative="1" as="geometry">
            <mxPoint x="500" y="160" as="sourcePoint" />
            <mxPoint x="480" y="90" as="targetPoint" />
          </mxGeometry>
        </mxCell>
        <mxCell id="j-9qPvD1AJtOhM12_87O-41" style="edgeStyle=orthogonalEdgeStyle;shape=link;rounded=0;orthogonalLoop=1;jettySize=auto;html=1;exitX=1;exitY=0.5;exitDx=0;exitDy=0;entryX=0;entryY=0.5;entryDx=0;entryDy=0;" edge="1" parent="1" source="j-9qPvD1AJtOhM12_87O-6" target="yTIiG7DujcUhzpI4ZRod-11">
          <mxGeometry relative="1" as="geometry">
            <mxPoint x="330" y="330" as="targetPoint" />
          </mxGeometry>
        </mxCell>
        <mxCell id="j-9qPvD1AJtOhM12_87O-6" value="has" style="rhombus;whiteSpace=wrap;html=1;" vertex="1" parent="1">
          <mxGeometry x="270" y="140" width="80" height="80" as="geometry" />
        </mxCell>
        <mxCell id="j-9qPvD1AJtOhM12_87O-9" value="N" style="text;strokeColor=none;align=center;fillColor=none;html=1;verticalAlign=middle;whiteSpace=wrap;rounded=0;" vertex="1" parent="1">
          <mxGeometry x="200" y="180" width="60" height="30" as="geometry" />
        </mxCell>
        <mxCell id="j-9qPvD1AJtOhM12_87O-10" value="&lt;font size=&quot;3&quot;&gt;M&lt;/font&gt;" style="text;strokeColor=none;align=center;fillColor=none;html=1;verticalAlign=middle;whiteSpace=wrap;rounded=0;" vertex="1" parent="1">
          <mxGeometry x="360" y="180" width="60" height="30" as="geometry" />
        </mxCell>
        <mxCell id="j-9qPvD1AJtOhM12_87O-14" value="" style="endArrow=none;html=1;rounded=0;exitX=0.642;exitY=-0.025;exitDx=0;exitDy=0;exitPerimeter=0;" edge="1" parent="1" source="yTIiG7DujcUhzpI4ZRod-11">
          <mxGeometry width="50" height="50" relative="1" as="geometry">
            <mxPoint x="510" y="170" as="sourcePoint" />
            <mxPoint x="420" y="100" as="targetPoint" />
          </mxGeometry>
        </mxCell>
        <mxCell id="j-9qPvD1AJtOhM12_87O-15" value="" style="endArrow=none;html=1;rounded=0;" edge="1" parent="1">
          <mxGeometry width="50" height="50" relative="1" as="geometry">
            <mxPoint x="500" y="160" as="sourcePoint" />
            <mxPoint x="400" y="130" as="targetPoint" />
          </mxGeometry>
        </mxCell>
        <mxCell id="j-9qPvD1AJtOhM12_87O-16" value="Start_Date" style="ellipse;whiteSpace=wrap;html=1;fontStyle=0" vertex="1" parent="1">
          <mxGeometry x="370" y="60" width="80" height="40" as="geometry" />
        </mxCell>
        <mxCell id="j-9qPvD1AJtOhM12_87O-17" value="Tr_Name" style="ellipse;whiteSpace=wrap;html=1;fontStyle=0" vertex="1" parent="1">
          <mxGeometry x="450" y="50" width="80" height="40" as="geometry" />
        </mxCell>
        <mxCell id="j-9qPvD1AJtOhM12_87O-18" value="End_Date" style="ellipse;whiteSpace=wrap;html=1;fontStyle=0" vertex="1" parent="1">
          <mxGeometry x="330" y="100" width="80" height="40" as="geometry" />
        </mxCell>
        <mxCell id="j-9qPvD1AJtOhM12_87O-27" value="" style="endArrow=none;html=1;rounded=0;exitX=0;exitY=0.5;exitDx=0;exitDy=0;entryX=1;entryY=0.5;entryDx=0;entryDy=0;" edge="1" parent="1" source="j-9qPvD1AJtOhM12_87O-6" target="yTIiG7DujcUhzpI4ZRod-1">
          <mxGeometry width="50" height="50" relative="1" as="geometry">
            <mxPoint x="360" y="210" as="sourcePoint" />
            <mxPoint x="430" y="190" as="targetPoint" />
          </mxGeometry>
        </mxCell>
        <mxCell id="j-9qPvD1AJtOhM12_87O-44" value="Ins_Name" style="ellipse;whiteSpace=wrap;html=1;align=center;" vertex="1" parent="1">
          <mxGeometry x="810" y="290" width="100" height="40" as="geometry" />
        </mxCell>
        <mxCell id="j-9qPvD1AJtOhM12_87O-47" style="edgeStyle=orthogonalEdgeStyle;rounded=0;orthogonalLoop=1;jettySize=auto;html=1;exitX=0.5;exitY=1;exitDx=0;exitDy=0;" edge="1" parent="1" source="j-9qPvD1AJtOhM12_87O-45">
          <mxGeometry relative="1" as="geometry">
            <mxPoint x="680" y="280" as="targetPoint" />
          </mxGeometry>
        </mxCell>
        <mxCell id="j-9qPvD1AJtOhM12_87O-45" value="assign" style="shape=rhombus;perimeter=rhombusPerimeter;whiteSpace=wrap;html=1;align=center;" vertex="1" parent="1">
          <mxGeometry x="620" y="150" width="120" height="60" as="geometry" />
        </mxCell>
        <mxCell id="j-9qPvD1AJtOhM12_87O-61" style="edgeStyle=orthogonalEdgeStyle;shape=link;rounded=0;orthogonalLoop=1;jettySize=auto;html=1;exitX=0;exitY=1;exitDx=0;exitDy=0;entryX=0.5;entryY=0;entryDx=0;entryDy=0;" edge="1" parent="1" source="j-9qPvD1AJtOhM12_87O-51" target="j-9qPvD1AJtOhM12_87O-53">
          <mxGeometry relative="1" as="geometry" />
        </mxCell>
        <mxCell id="SYhjhkv1CLO-JWM8SGGZ-24" style="rounded=0;orthogonalLoop=1;jettySize=auto;html=1;shape=link;" edge="1" parent="1" source="j-9qPvD1AJtOhM12_87O-51" target="SYhjhkv1CLO-JWM8SGGZ-22">
          <mxGeometry relative="1" as="geometry" />
        </mxCell>
        <mxCell id="j-9qPvD1AJtOhM12_87O-51" value="Instructor" style="whiteSpace=wrap;html=1;align=center;" vertex="1" parent="1">
          <mxGeometry x="630" y="270" width="100" height="40" as="geometry" />
        </mxCell>
        <mxCell id="j-9qPvD1AJtOhM12_87O-52" value="" style="endArrow=none;html=1;rounded=0;entryX=1;entryY=0.5;entryDx=0;entryDy=0;" edge="1" parent="1" target="j-9qPvD1AJtOhM12_87O-51">
          <mxGeometry width="50" height="50" relative="1" as="geometry">
            <mxPoint x="810" y="310" as="sourcePoint" />
            <mxPoint x="710" y="310" as="targetPoint" />
          </mxGeometry>
        </mxCell>
        <mxCell id="j-9qPvD1AJtOhM12_87O-53" value="Teach" style="shape=rhombus;perimeter=rhombusPerimeter;whiteSpace=wrap;html=1;align=center;" vertex="1" parent="1">
          <mxGeometry x="580" y="390" width="100" height="50" as="geometry" />
        </mxCell>
        <mxCell id="j-9qPvD1AJtOhM12_87O-54" value="&lt;font size=&quot;3&quot;&gt;M&lt;/font&gt;" style="text;strokeColor=none;align=center;fillColor=none;html=1;verticalAlign=middle;whiteSpace=wrap;rounded=0;" vertex="1" parent="1">
          <mxGeometry x="660" y="230" width="60" height="30" as="geometry" />
        </mxCell>
        <mxCell id="j-9qPvD1AJtOhM12_87O-55" value="N" style="text;strokeColor=none;align=center;fillColor=none;html=1;verticalAlign=middle;whiteSpace=wrap;rounded=0;" vertex="1" parent="1">
          <mxGeometry x="550" y="180" width="60" height="30" as="geometry" />
        </mxCell>
        <mxCell id="j-9qPvD1AJtOhM12_87O-56" value="Course" style="whiteSpace=wrap;html=1;align=center;" vertex="1" parent="1">
          <mxGeometry x="430" y="785" width="100" height="40" as="geometry" />
        </mxCell>
        <mxCell id="j-9qPvD1AJtOhM12_87O-126" style="edgeStyle=none;shape=link;rounded=0;orthogonalLoop=1;jettySize=auto;html=1;exitX=0.5;exitY=1;exitDx=0;exitDy=0;" edge="1" parent="1" source="j-9qPvD1AJtOhM12_87O-57" target="j-9qPvD1AJtOhM12_87O-56">
          <mxGeometry relative="1" as="geometry" />
        </mxCell>
        <mxCell id="j-9qPvD1AJtOhM12_87O-57" value="Include" style="shape=rhombus;perimeter=rhombusPerimeter;whiteSpace=wrap;html=1;align=center;" vertex="1" parent="1">
          <mxGeometry x="430" y="340" width="100" height="50" as="geometry" />
        </mxCell>
        <mxCell id="j-9qPvD1AJtOhM12_87O-66" value="" style="endArrow=none;html=1;rounded=0;entryX=1;entryY=0.5;entryDx=0;entryDy=0;" edge="1" parent="1" target="j-9qPvD1AJtOhM12_87O-51">
          <mxGeometry width="50" height="50" relative="1" as="geometry">
            <mxPoint x="810" y="360" as="sourcePoint" />
            <mxPoint x="740" y="300" as="targetPoint" />
          </mxGeometry>
        </mxCell>
        <mxCell id="j-9qPvD1AJtOhM12_87O-67" value="Phone" style="ellipse;whiteSpace=wrap;html=1;align=center;" vertex="1" parent="1">
          <mxGeometry x="808" y="340" width="100" height="40" as="geometry" />
        </mxCell>
        <mxCell id="j-9qPvD1AJtOhM12_87O-68" value="&lt;font size=&quot;3&quot;&gt;1&lt;/font&gt;" style="text;strokeColor=none;align=center;fillColor=none;html=1;verticalAlign=middle;whiteSpace=wrap;rounded=0;" vertex="1" parent="1">
          <mxGeometry x="440" y="275" width="60" height="30" as="geometry" />
        </mxCell>
        <mxCell id="j-9qPvD1AJtOhM12_87O-69" value="Ins_id" style="ellipse;whiteSpace=wrap;html=1;align=center;fontStyle=4;" vertex="1" parent="1">
          <mxGeometry x="850" y="240" width="100" height="40" as="geometry" />
        </mxCell>
        <mxCell id="j-9qPvD1AJtOhM12_87O-70" value="" style="endArrow=none;html=1;rounded=0;entryX=1;entryY=0.5;entryDx=0;entryDy=0;exitX=0;exitY=0.5;exitDx=0;exitDy=0;" edge="1" parent="1" source="j-9qPvD1AJtOhM12_87O-69" target="j-9qPvD1AJtOhM12_87O-51">
          <mxGeometry width="50" height="50" relative="1" as="geometry">
            <mxPoint x="820" y="320" as="sourcePoint" />
            <mxPoint x="740" y="300" as="targetPoint" />
          </mxGeometry>
        </mxCell>
        <mxCell id="j-9qPvD1AJtOhM12_87O-71" value="" style="endArrow=none;html=1;rounded=0;entryX=1;entryY=0.5;entryDx=0;entryDy=0;exitX=0;exitY=0.5;exitDx=0;exitDy=0;" edge="1" parent="1" source="j-9qPvD1AJtOhM12_87O-72" target="j-9qPvD1AJtOhM12_87O-51">
          <mxGeometry width="50" height="50" relative="1" as="geometry">
            <mxPoint x="820" y="430" as="sourcePoint" />
            <mxPoint x="740" y="300" as="targetPoint" />
          </mxGeometry>
        </mxCell>
        <mxCell id="j-9qPvD1AJtOhM12_87O-72" value="Ins_gmail" style="ellipse;whiteSpace=wrap;html=1;align=center;" vertex="1" parent="1">
          <mxGeometry x="830" y="390" width="100" height="40" as="geometry" />
        </mxCell>
        <mxCell id="j-9qPvD1AJtOhM12_87O-75" value="" style="endArrow=none;html=1;rounded=0;" edge="1" parent="1">
          <mxGeometry width="50" height="50" relative="1" as="geometry">
            <mxPoint x="870" y="210" as="sourcePoint" />
            <mxPoint x="730" y="290" as="targetPoint" />
          </mxGeometry>
        </mxCell>
        <mxCell id="j-9qPvD1AJtOhM12_87O-76" value="Salary" style="ellipse;whiteSpace=wrap;html=1;align=center;" vertex="1" parent="1">
          <mxGeometry x="860" y="190" width="100" height="40" as="geometry" />
        </mxCell>
        <mxCell id="j-9qPvD1AJtOhM12_87O-83" style="shape=link;rounded=0;orthogonalLoop=1;jettySize=auto;html=1;entryX=0;entryY=0.5;entryDx=0;entryDy=0;" edge="1" parent="1" source="j-9qPvD1AJtOhM12_87O-77" target="j-9qPvD1AJtOhM12_87O-78">
          <mxGeometry relative="1" as="geometry" />
        </mxCell>
        <mxCell id="SYhjhkv1CLO-JWM8SGGZ-25" style="rounded=0;orthogonalLoop=1;jettySize=auto;html=1;entryX=0;entryY=0.5;entryDx=0;entryDy=0;shape=link;" edge="1" parent="1" source="j-9qPvD1AJtOhM12_87O-77" target="SYhjhkv1CLO-JWM8SGGZ-23">
          <mxGeometry relative="1" as="geometry" />
        </mxCell>
        <mxCell id="j-9qPvD1AJtOhM12_87O-77" value="Student" style="whiteSpace=wrap;html=1;align=center;" vertex="1" parent="1">
          <mxGeometry x="-30" y="405" width="90" height="45" as="geometry" />
        </mxCell>
        <mxCell id="j-9qPvD1AJtOhM12_87O-78" value="&lt;h3 style=&quot;font-weight: var(--ds-font-weight-strong); font-size: calc(var(--ds-md-zoom)*16px); line-height: 1.5; margin: calc(var(--ds-md-zoom)*16px)0 calc(var(--ds-md-zoom)*12px)0; color: rgb(64, 64, 64); font-family: Inter, system-ui, -apple-system, BlinkMacSystemFont, &amp;quot;Segoe UI&amp;quot;, Roboto, &amp;quot;Noto Sans&amp;quot;, Ubuntu, Cantarell, &amp;quot;Helvetica Neue&amp;quot;, Oxygen, &amp;quot;Open Sans&amp;quot;, sans-serif; text-align: start;&quot;&gt;&lt;strong&gt;Enroll&lt;/strong&gt;&lt;/h3&gt;" style="shape=rhombus;perimeter=rhombusPerimeter;whiteSpace=wrap;html=1;align=center;" vertex="1" parent="1">
          <mxGeometry x="190" y="400" width="100" height="50" as="geometry" />
        </mxCell>
        <mxCell id="j-9qPvD1AJtOhM12_87O-84" value="" style="endArrow=none;html=1;rounded=0;entryX=0.25;entryY=1;entryDx=0;entryDy=0;exitX=1;exitY=0.5;exitDx=0;exitDy=0;" edge="1" parent="1" source="j-9qPvD1AJtOhM12_87O-78" target="yTIiG7DujcUhzpI4ZRod-11">
          <mxGeometry width="50" height="50" relative="1" as="geometry">
            <mxPoint x="290" y="420" as="sourcePoint" />
            <mxPoint x="340" y="370" as="targetPoint" />
          </mxGeometry>
        </mxCell>
        <mxCell id="j-9qPvD1AJtOhM12_87O-85" value="&lt;font size=&quot;3&quot;&gt;M&lt;/font&gt;" style="text;strokeColor=none;align=center;fillColor=none;html=1;verticalAlign=middle;whiteSpace=wrap;rounded=0;" vertex="1" parent="1">
          <mxGeometry x="570" y="550" width="60" height="30" as="geometry" />
        </mxCell>
        <mxCell id="j-9qPvD1AJtOhM12_87O-98" style="shape=link;rounded=0;orthogonalLoop=1;jettySize=auto;html=1;exitX=1;exitY=0.5;exitDx=0;exitDy=0;entryX=0;entryY=0.25;entryDx=0;entryDy=0;" edge="1" parent="1" source="j-9qPvD1AJtOhM12_87O-86" target="j-9qPvD1AJtOhM12_87O-56">
          <mxGeometry relative="1" as="geometry">
            <mxPoint x="390" y="760" as="targetPoint" />
          </mxGeometry>
        </mxCell>
        <mxCell id="j-9qPvD1AJtOhM12_87O-99" style="shape=link;rounded=0;orthogonalLoop=1;jettySize=auto;html=1;exitX=0;exitY=0.5;exitDx=0;exitDy=0;entryX=0.58;entryY=1;entryDx=0;entryDy=0;entryPerimeter=0;" edge="1" parent="1" source="j-9qPvD1AJtOhM12_87O-86" target="j-9qPvD1AJtOhM12_87O-77">
          <mxGeometry relative="1" as="geometry">
            <mxPoint x="40" y="460" as="targetPoint" />
          </mxGeometry>
        </mxCell>
        <mxCell id="j-9qPvD1AJtOhM12_87O-86" value="&lt;h3 style=&quot;font-weight: var(--ds-font-weight-strong); font-size: calc(var(--ds-md-zoom)*16px); line-height: 1.5; margin: calc(var(--ds-md-zoom)*16px)0 calc(var(--ds-md-zoom)*12px)0; color: rgb(64, 64, 64); font-family: Inter, system-ui, -apple-system, BlinkMacSystemFont, &amp;quot;Segoe UI&amp;quot;, Roboto, &amp;quot;Noto Sans&amp;quot;, Ubuntu, Cantarell, &amp;quot;Helvetica Neue&amp;quot;, Oxygen, &amp;quot;Open Sans&amp;quot;, sans-serif; text-align: start;&quot;&gt;&lt;strong&gt;Study&lt;/strong&gt;&lt;/h3&gt;" style="shape=rhombus;perimeter=rhombusPerimeter;whiteSpace=wrap;html=1;align=center;" vertex="1" parent="1">
          <mxGeometry x="148" y="610" width="100" height="50" as="geometry" />
        </mxCell>
        <mxCell id="j-9qPvD1AJtOhM12_87O-93" value="" style="endArrow=none;html=1;rounded=0;entryX=0.5;entryY=1;entryDx=0;entryDy=0;exitX=0.5;exitY=0;exitDx=0;exitDy=0;" edge="1" parent="1" source="j-9qPvD1AJtOhM12_87O-56" target="j-9qPvD1AJtOhM12_87O-53">
          <mxGeometry width="50" height="50" relative="1" as="geometry">
            <mxPoint x="490" y="794" as="sourcePoint" />
            <mxPoint x="490" y="400" as="targetPoint" />
            <Array as="points" />
          </mxGeometry>
        </mxCell>
        <mxCell id="j-9qPvD1AJtOhM12_87O-100" value="" style="endArrow=none;html=1;rounded=0;entryX=0.5;entryY=1;entryDx=0;entryDy=0;" edge="1" parent="1" target="j-9qPvD1AJtOhM12_87O-56">
          <mxGeometry width="50" height="50" relative="1" as="geometry">
            <mxPoint x="410" y="880" as="sourcePoint" />
            <mxPoint x="470" y="830" as="targetPoint" />
          </mxGeometry>
        </mxCell>
        <mxCell id="j-9qPvD1AJtOhM12_87O-101" value="Crs_Name" style="ellipse;whiteSpace=wrap;html=1;align=center;" vertex="1" parent="1">
          <mxGeometry x="370" y="880" width="100" height="40" as="geometry" />
        </mxCell>
        <mxCell id="j-9qPvD1AJtOhM12_87O-102" value="" style="endArrow=none;html=1;rounded=0;entryX=0.5;entryY=1;entryDx=0;entryDy=0;" edge="1" parent="1" target="j-9qPvD1AJtOhM12_87O-56">
          <mxGeometry width="50" height="50" relative="1" as="geometry">
            <mxPoint x="500" y="890" as="sourcePoint" />
            <mxPoint x="490" y="830" as="targetPoint" />
          </mxGeometry>
        </mxCell>
        <mxCell id="j-9qPvD1AJtOhM12_87O-103" value="Crs_id" style="ellipse;whiteSpace=wrap;html=1;align=center;fontStyle=4;" vertex="1" parent="1">
          <mxGeometry x="475" y="880" width="75" height="40" as="geometry" />
        </mxCell>
        <mxCell id="j-9qPvD1AJtOhM12_87O-104" value="" style="endArrow=none;html=1;rounded=0;entryX=0.5;entryY=1;entryDx=0;entryDy=0;" edge="1" parent="1" target="j-9qPvD1AJtOhM12_87O-56">
          <mxGeometry width="50" height="50" relative="1" as="geometry">
            <mxPoint x="570" y="870" as="sourcePoint" />
            <mxPoint x="490" y="835" as="targetPoint" />
          </mxGeometry>
        </mxCell>
        <mxCell id="j-9qPvD1AJtOhM12_87O-105" value="Crs_Duration" style="ellipse;whiteSpace=wrap;html=1;align=center;movable=1;resizable=1;rotatable=1;deletable=1;editable=1;locked=0;connectable=1;" vertex="1" parent="1">
          <mxGeometry x="560" y="860" width="100" height="40" as="geometry" />
        </mxCell>
        <mxCell id="Zs-pwH4KFQSvdcuJnu1J-1" value="&lt;font size=&quot;3&quot;&gt;M&lt;/font&gt;" style="text;strokeColor=none;align=center;fillColor=none;html=1;verticalAlign=middle;whiteSpace=wrap;rounded=0;" vertex="1" parent="1">
          <mxGeometry x="430" y="430" width="60" height="30" as="geometry" />
        </mxCell>
        <mxCell id="j-9qPvD1AJtOhM12_87O-106" value="" style="endArrow=none;html=1;rounded=0;exitX=0.62;exitY=0.025;exitDx=0;exitDy=0;exitPerimeter=0;" edge="1" parent="1" source="j-9qPvD1AJtOhM12_87O-77">
          <mxGeometry width="50" height="50" relative="1" as="geometry">
            <mxPoint x="40" y="400" as="sourcePoint" />
            <mxPoint x="100" y="350" as="targetPoint" />
          </mxGeometry>
        </mxCell>
        <mxCell id="j-9qPvD1AJtOhM12_87O-107" value="St_id" style="ellipse;whiteSpace=wrap;html=1;align=center;fontStyle=4;" vertex="1" parent="1">
          <mxGeometry x="78" y="320" width="70" height="40" as="geometry" />
        </mxCell>
        <mxCell id="j-9qPvD1AJtOhM12_87O-108" value="St_name" style="ellipse;whiteSpace=wrap;html=1;align=center;" vertex="1" parent="1">
          <mxGeometry x="-10" y="310" width="80" height="40" as="geometry" />
        </mxCell>
        <mxCell id="j-9qPvD1AJtOhM12_87O-110" value="" style="endArrow=none;html=1;rounded=0;exitX=0.64;exitY=0.025;exitDx=0;exitDy=0;exitPerimeter=0;entryX=0.5;entryY=1;entryDx=0;entryDy=0;" edge="1" parent="1" source="j-9qPvD1AJtOhM12_87O-77" target="j-9qPvD1AJtOhM12_87O-108">
          <mxGeometry width="50" height="50" relative="1" as="geometry">
            <mxPoint x="50" y="410" as="sourcePoint" />
            <mxPoint x="110" y="360" as="targetPoint" />
          </mxGeometry>
        </mxCell>
        <mxCell id="j-9qPvD1AJtOhM12_87O-111" value="St_gmail" style="ellipse;whiteSpace=wrap;html=1;align=center;" vertex="1" parent="1">
          <mxGeometry x="-80" y="265" width="80" height="40" as="geometry" />
        </mxCell>
        <mxCell id="j-9qPvD1AJtOhM12_87O-112" value="" style="endArrow=none;html=1;rounded=0;exitX=0.64;exitY=0.05;exitDx=0;exitDy=0;exitPerimeter=0;entryX=0.5;entryY=1;entryDx=0;entryDy=0;" edge="1" parent="1" source="j-9qPvD1AJtOhM12_87O-77" target="j-9qPvD1AJtOhM12_87O-111">
          <mxGeometry width="50" height="50" relative="1" as="geometry">
            <mxPoint x="44" y="416" as="sourcePoint" />
            <mxPoint x="40" y="360" as="targetPoint" />
          </mxGeometry>
        </mxCell>
        <mxCell id="j-9qPvD1AJtOhM12_87O-116" value="Gender" style="ellipse;whiteSpace=wrap;html=1;align=center;" vertex="1" parent="1">
          <mxGeometry x="-150" y="350" width="80" height="40" as="geometry" />
        </mxCell>
        <mxCell id="j-9qPvD1AJtOhM12_87O-117" value="" style="endArrow=none;html=1;rounded=0;entryX=0.5;entryY=0;entryDx=0;entryDy=0;" edge="1" parent="1" source="j-9qPvD1AJtOhM12_87O-116" target="j-9qPvD1AJtOhM12_87O-77">
          <mxGeometry width="50" height="50" relative="1" as="geometry">
            <mxPoint x="-80" y="440" as="sourcePoint" />
            <mxPoint x="20" y="400" as="targetPoint" />
          </mxGeometry>
        </mxCell>
        <mxCell id="j-9qPvD1AJtOhM12_87O-118" value="&lt;font size=&quot;3&quot;&gt;M&lt;/font&gt;" style="text;strokeColor=none;align=center;fillColor=none;html=1;verticalAlign=middle;whiteSpace=wrap;rounded=0;" vertex="1" parent="1">
          <mxGeometry x="100" y="560" width="60" height="30" as="geometry" />
        </mxCell>
        <mxCell id="j-9qPvD1AJtOhM12_87O-119" value="&lt;font size=&quot;3&quot;&gt;M&lt;/font&gt;" style="text;strokeColor=none;align=center;fillColor=none;html=1;verticalAlign=middle;whiteSpace=wrap;rounded=0;" vertex="1" parent="1">
          <mxGeometry x="290" y="660" width="60" height="30" as="geometry" />
        </mxCell>
        <mxCell id="j-9qPvD1AJtOhM12_87O-120" value="Manage" style="shape=rhombus;perimeter=rhombusPerimeter;whiteSpace=wrap;html=1;align=center;" vertex="1" parent="1">
          <mxGeometry x="750" y="80" width="100" height="50" as="geometry" />
        </mxCell>
        <mxCell id="j-9qPvD1AJtOhM12_87O-121" style="shape=link;rounded=0;orthogonalLoop=1;jettySize=auto;html=1;exitX=1;exitY=0;exitDx=0;exitDy=0;entryX=-0.06;entryY=0.5;entryDx=0;entryDy=0;entryPerimeter=0;" edge="1" parent="1" source="yTIiG7DujcUhzpI4ZRod-11" target="j-9qPvD1AJtOhM12_87O-120">
          <mxGeometry relative="1" as="geometry" />
        </mxCell>
        <mxCell id="j-9qPvD1AJtOhM12_87O-123" value="" style="endArrow=none;html=1;rounded=0;entryX=0.5;entryY=1;entryDx=0;entryDy=0;" edge="1" parent="1" target="j-9qPvD1AJtOhM12_87O-120">
          <mxGeometry width="50" height="50" relative="1" as="geometry">
            <mxPoint x="730" y="270" as="sourcePoint" />
            <mxPoint x="780" y="220" as="targetPoint" />
          </mxGeometry>
        </mxCell>
        <mxCell id="j-9qPvD1AJtOhM12_87O-124" value="&lt;font size=&quot;3&quot;&gt;1&lt;/font&gt;" style="text;strokeColor=none;align=center;fillColor=none;html=1;verticalAlign=middle;whiteSpace=wrap;rounded=0;" vertex="1" parent="1">
          <mxGeometry x="680" y="85" width="60" height="30" as="geometry" />
        </mxCell>
        <mxCell id="j-9qPvD1AJtOhM12_87O-125" value="&lt;font size=&quot;3&quot;&gt;1&lt;/font&gt;" style="text;strokeColor=none;align=center;fillColor=none;html=1;verticalAlign=middle;whiteSpace=wrap;rounded=0;" vertex="1" parent="1">
          <mxGeometry x="770" y="150" width="60" height="30" as="geometry" />
        </mxCell>
        <mxCell id="j-9qPvD1AJtOhM12_87O-127" value="" style="endArrow=none;html=1;rounded=0;entryX=0.5;entryY=1;entryDx=0;entryDy=0;exitX=0.43;exitY=-0.05;exitDx=0;exitDy=0;exitPerimeter=0;" edge="1" parent="1" target="j-9qPvD1AJtOhM12_87O-56" source="j-9qPvD1AJtOhM12_87O-128">
          <mxGeometry width="50" height="50" relative="1" as="geometry">
            <mxPoint x="360" y="860" as="sourcePoint" />
            <mxPoint x="490" y="835" as="targetPoint" />
          </mxGeometry>
        </mxCell>
        <mxCell id="j-9qPvD1AJtOhM12_87O-128" value="Tr_id" style="ellipse;whiteSpace=wrap;html=1;align=center;fontStyle=0" vertex="1" parent="1">
          <mxGeometry x="280" y="920" width="100" height="40" as="geometry" />
        </mxCell>
        <mxCell id="j-9qPvD1AJtOhM12_87O-140" value="" style="endArrow=none;dashed=1;html=1;rounded=0;" edge="1" parent="1">
          <mxGeometry width="50" height="50" relative="1" as="geometry">
            <mxPoint x="320" y="880" as="sourcePoint" />
            <mxPoint x="340" y="880" as="targetPoint" />
          </mxGeometry>
        </mxCell>
        <mxCell id="j-9qPvD1AJtOhM12_87O-141" value="&lt;font size=&quot;3&quot;&gt;1&lt;/font&gt;" style="text;strokeColor=none;align=center;fillColor=none;html=1;verticalAlign=middle;whiteSpace=wrap;rounded=0;" vertex="1" parent="1">
          <mxGeometry x="365" y="230" width="60" height="30" as="geometry" />
        </mxCell>
        <mxCell id="j-9qPvD1AJtOhM12_87O-142" value="&lt;font size=&quot;3&quot;&gt;M&lt;/font&gt;" style="text;strokeColor=none;align=center;fillColor=none;html=1;verticalAlign=middle;whiteSpace=wrap;rounded=0;" vertex="1" parent="1">
          <mxGeometry x="110" y="400" width="60" height="30" as="geometry" />
        </mxCell>
        <mxCell id="j-9qPvD1AJtOhM12_87O-143" value="Tr_id" style="ellipse;whiteSpace=wrap;html=1;align=center;fontStyle=0" vertex="1" parent="1">
          <mxGeometry x="40" y="250" width="100" height="40" as="geometry" />
        </mxCell>
        <mxCell id="j-9qPvD1AJtOhM12_87O-145" value="" style="endArrow=none;html=1;rounded=0;entryX=0.5;entryY=1;entryDx=0;entryDy=0;" edge="1" parent="1" target="j-9qPvD1AJtOhM12_87O-143">
          <mxGeometry width="50" height="50" relative="1" as="geometry">
            <mxPoint x="40" y="400" as="sourcePoint" />
            <mxPoint x="90" y="350" as="targetPoint" />
          </mxGeometry>
        </mxCell>
        <mxCell id="j-9qPvD1AJtOhM12_87O-147" value="" style="endArrow=none;dashed=1;html=1;rounded=0;" edge="1" parent="1">
          <mxGeometry width="50" height="50" relative="1" as="geometry">
            <mxPoint x="80" y="280" as="sourcePoint" />
            <mxPoint x="110" y="280" as="targetPoint" />
          </mxGeometry>
        </mxCell>
        <mxCell id="j-9qPvD1AJtOhM12_87O-151" style="edgeStyle=none;shape=link;rounded=0;orthogonalLoop=1;jettySize=auto;html=1;exitX=1;exitY=0.5;exitDx=0;exitDy=0;entryX=0;entryY=0.5;entryDx=0;entryDy=0;" edge="1" parent="1" source="j-9qPvD1AJtOhM12_87O-148" target="j-9qPvD1AJtOhM12_87O-149">
          <mxGeometry relative="1" as="geometry" />
        </mxCell>
        <mxCell id="j-9qPvD1AJtOhM12_87O-148" value="Exam" style="whiteSpace=wrap;html=1;align=center;" vertex="1" parent="1">
          <mxGeometry x="-120" y="785" width="100" height="40" as="geometry" />
        </mxCell>
        <mxCell id="j-9qPvD1AJtOhM12_87O-149" value="Evaluate" style="shape=rhombus;perimeter=rhombusPerimeter;whiteSpace=wrap;html=1;align=center;" vertex="1" parent="1">
          <mxGeometry x="170" y="775" width="100" height="50" as="geometry" />
        </mxCell>
        <mxCell id="j-9qPvD1AJtOhM12_87O-150" value="" style="endArrow=none;html=1;rounded=0;exitX=1;exitY=0.5;exitDx=0;exitDy=0;entryX=0;entryY=0.5;entryDx=0;entryDy=0;" edge="1" parent="1" source="j-9qPvD1AJtOhM12_87O-149" target="j-9qPvD1AJtOhM12_87O-56">
          <mxGeometry width="50" height="50" relative="1" as="geometry">
            <mxPoint x="110" y="850" as="sourcePoint" />
            <mxPoint x="420" y="800" as="targetPoint" />
          </mxGeometry>
        </mxCell>
        <mxCell id="j-9qPvD1AJtOhM12_87O-152" value="&lt;font size=&quot;3&quot;&gt;M&lt;/font&gt;" style="text;strokeColor=none;align=center;fillColor=none;html=1;verticalAlign=middle;whiteSpace=wrap;rounded=0;" vertex="1" parent="1">
          <mxGeometry x="30" y="770" width="60" height="30" as="geometry" />
        </mxCell>
        <mxCell id="j-9qPvD1AJtOhM12_87O-153" value="&lt;font size=&quot;3&quot;&gt;1&lt;/font&gt;" style="text;strokeColor=none;align=center;fillColor=none;html=1;verticalAlign=middle;whiteSpace=wrap;rounded=0;" vertex="1" parent="1">
          <mxGeometry x="305" y="770" width="60" height="30" as="geometry" />
        </mxCell>
        <mxCell id="j-9qPvD1AJtOhM12_87O-154" value="Take" style="shape=rhombus;perimeter=rhombusPerimeter;whiteSpace=wrap;html=1;align=center;" vertex="1" parent="1">
          <mxGeometry x="-60" y="600" width="100" height="50" as="geometry" />
        </mxCell>
        <mxCell id="j-9qPvD1AJtOhM12_87O-156" value="&lt;font size=&quot;3&quot;&gt;M&lt;/font&gt;" style="text;strokeColor=none;align=center;fillColor=none;html=1;verticalAlign=middle;whiteSpace=wrap;rounded=0;" vertex="1" parent="1">
          <mxGeometry x="-50" y="550" width="60" height="30" as="geometry" />
        </mxCell>
        <mxCell id="j-9qPvD1AJtOhM12_87O-157" value="N" style="text;strokeColor=none;align=center;fillColor=none;html=1;verticalAlign=middle;whiteSpace=wrap;rounded=0;" vertex="1" parent="1">
          <mxGeometry x="-70" y="660" width="60" height="30" as="geometry" />
        </mxCell>
        <mxCell id="j-9qPvD1AJtOhM12_87O-158" value="" style="endArrow=none;html=1;rounded=0;exitX=0.5;exitY=0;exitDx=0;exitDy=0;" edge="1" parent="1" source="j-9qPvD1AJtOhM12_87O-154">
          <mxGeometry width="50" height="50" relative="1" as="geometry">
            <mxPoint x="-40" y="495" as="sourcePoint" />
            <mxPoint x="10" y="445" as="targetPoint" />
          </mxGeometry>
        </mxCell>
        <mxCell id="j-9qPvD1AJtOhM12_87O-159" style="edgeStyle=none;shape=link;rounded=0;orthogonalLoop=1;jettySize=auto;html=1;exitX=0.5;exitY=0;exitDx=0;exitDy=0;entryX=0.5;entryY=1;entryDx=0;entryDy=0;" edge="1" parent="1" source="j-9qPvD1AJtOhM12_87O-148" target="j-9qPvD1AJtOhM12_87O-154">
          <mxGeometry relative="1" as="geometry" />
        </mxCell>
        <mxCell id="j-9qPvD1AJtOhM12_87O-160" value="choice" style="whiteSpace=wrap;html=1;align=center;" vertex="1" parent="1">
          <mxGeometry x="-410" y="1220" width="100" height="40" as="geometry" />
        </mxCell>
        <mxCell id="j-9qPvD1AJtOhM12_87O-161" value="Question" style="whiteSpace=wrap;html=1;align=center;" vertex="1" parent="1">
          <mxGeometry x="78" y="1110" width="100" height="40" as="geometry" />
        </mxCell>
        <mxCell id="j-9qPvD1AJtOhM12_87O-163" value="Letter" style="ellipse;whiteSpace=wrap;html=1;align=center;" vertex="1" parent="1">
          <mxGeometry x="-300" y="1320" width="80" height="40" as="geometry" />
        </mxCell>
        <mxCell id="j-9qPvD1AJtOhM12_87O-164" value="ch_id" style="ellipse;whiteSpace=wrap;html=1;align=center;fontStyle=4;" vertex="1" parent="1">
          <mxGeometry x="-410" y="1330" width="70" height="40" as="geometry" />
        </mxCell>
        <mxCell id="j-9qPvD1AJtOhM12_87O-171" value="Ex_Duration" style="ellipse;whiteSpace=wrap;html=1;align=center;" vertex="1" parent="1">
          <mxGeometry x="-70" y="920" width="80" height="40" as="geometry" />
        </mxCell>
        <mxCell id="j-9qPvD1AJtOhM12_87O-172" value="" style="endArrow=none;html=1;rounded=0;exitX=0.5;exitY=0;exitDx=0;exitDy=0;entryX=0.5;entryY=1;entryDx=0;entryDy=0;" edge="1" parent="1" source="j-9qPvD1AJtOhM12_87O-171" target="j-9qPvD1AJtOhM12_87O-148">
          <mxGeometry width="50" height="50" relative="1" as="geometry">
            <mxPoint x="-110" y="880" as="sourcePoint" />
            <mxPoint x="-60" y="830" as="targetPoint" />
          </mxGeometry>
        </mxCell>
        <mxCell id="j-9qPvD1AJtOhM12_87O-174" value="Ex_id" style="ellipse;whiteSpace=wrap;html=1;align=center;fontStyle=4;" vertex="1" parent="1">
          <mxGeometry x="-160" y="910" width="70" height="40" as="geometry" />
        </mxCell>
        <mxCell id="j-9qPvD1AJtOhM12_87O-175" value="Ex_Date" style="ellipse;whiteSpace=wrap;html=1;align=center;" vertex="1" parent="1">
          <mxGeometry x="-230" y="825" width="80" height="40" as="geometry" />
        </mxCell>
        <mxCell id="j-9qPvD1AJtOhM12_87O-176" value="Ex_name" style="ellipse;whiteSpace=wrap;html=1;align=center;" vertex="1" parent="1">
          <mxGeometry x="-240" y="870" width="80" height="40" as="geometry" />
        </mxCell>
        <mxCell id="j-9qPvD1AJtOhM12_87O-177" value="" style="endArrow=none;html=1;rounded=0;exitX=0.714;exitY=0.1;exitDx=0;exitDy=0;exitPerimeter=0;entryX=0.5;entryY=1;entryDx=0;entryDy=0;" edge="1" parent="1" source="j-9qPvD1AJtOhM12_87O-174" target="j-9qPvD1AJtOhM12_87O-148">
          <mxGeometry width="50" height="50" relative="1" as="geometry">
            <mxPoint x="-120" y="880" as="sourcePoint" />
            <mxPoint x="-70" y="830" as="targetPoint" />
          </mxGeometry>
        </mxCell>
        <mxCell id="j-9qPvD1AJtOhM12_87O-178" value="" style="endArrow=none;html=1;rounded=0;exitX=1;exitY=0.5;exitDx=0;exitDy=0;entryX=0.5;entryY=1;entryDx=0;entryDy=0;" edge="1" parent="1" source="j-9qPvD1AJtOhM12_87O-176" target="j-9qPvD1AJtOhM12_87O-148">
          <mxGeometry width="50" height="50" relative="1" as="geometry">
            <mxPoint x="-120" y="924" as="sourcePoint" />
            <mxPoint x="-70" y="830" as="targetPoint" />
          </mxGeometry>
        </mxCell>
        <mxCell id="j-9qPvD1AJtOhM12_87O-179" value="" style="endArrow=none;html=1;rounded=0;exitX=0.988;exitY=0.25;exitDx=0;exitDy=0;entryX=0.5;entryY=1;entryDx=0;entryDy=0;exitPerimeter=0;" edge="1" parent="1" source="SYhjhkv1CLO-JWM8SGGZ-48" target="j-9qPvD1AJtOhM12_87O-148">
          <mxGeometry width="50" height="50" relative="1" as="geometry">
            <mxPoint x="-150" y="900" as="sourcePoint" />
            <mxPoint x="-70" y="830" as="targetPoint" />
          </mxGeometry>
        </mxCell>
        <mxCell id="j-9qPvD1AJtOhM12_87O-181" value="" style="endArrow=none;html=1;rounded=0;entryX=0;entryY=0.5;entryDx=0;entryDy=0;" edge="1" parent="1" target="j-9qPvD1AJtOhM12_87O-154">
          <mxGeometry width="50" height="50" relative="1" as="geometry">
            <mxPoint x="-130" y="620" as="sourcePoint" />
            <mxPoint x="-60" y="620" as="targetPoint" />
          </mxGeometry>
        </mxCell>
        <mxCell id="j-9qPvD1AJtOhM12_87O-182" value="grade" style="ellipse;whiteSpace=wrap;html=1;align=center;" vertex="1" parent="1">
          <mxGeometry x="-210" y="605" width="80" height="40" as="geometry" />
        </mxCell>
        <mxCell id="j-9qPvD1AJtOhM12_87O-191" value="&#xa;Question_Choices&#xa;&#xa;" style="shape=rhombus;perimeter=rhombusPerimeter;whiteSpace=wrap;html=1;align=center;" vertex="1" parent="1">
          <mxGeometry x="-240" y="1120" width="130" height="80" as="geometry" />
        </mxCell>
        <mxCell id="j-9qPvD1AJtOhM12_87O-198" value="text" style="ellipse;whiteSpace=wrap;html=1;align=center;" vertex="1" parent="1">
          <mxGeometry x="295" y="1170" width="80" height="40" as="geometry" />
        </mxCell>
        <mxCell id="j-9qPvD1AJtOhM12_87O-199" value="Q_id" style="ellipse;whiteSpace=wrap;html=1;align=center;fontStyle=4;" vertex="1" parent="1">
          <mxGeometry x="170" y="1240" width="70" height="40" as="geometry" />
        </mxCell>
        <mxCell id="j-9qPvD1AJtOhM12_87O-203" value="Q_type" style="ellipse;whiteSpace=wrap;html=1;align=center;" vertex="1" parent="1">
          <mxGeometry x="-60" y="1220" width="100" height="40" as="geometry" />
        </mxCell>
        <mxCell id="j-9qPvD1AJtOhM12_87O-207" value="address" style="ellipse;whiteSpace=wrap;html=1;align=center;" vertex="1" parent="1">
          <mxGeometry x="-190" y="410" width="80" height="40" as="geometry" />
        </mxCell>
        <mxCell id="j-9qPvD1AJtOhM12_87O-208" value="" style="endArrow=none;html=1;rounded=0;exitX=1;exitY=0.75;exitDx=0;exitDy=0;exitPerimeter=0;" edge="1" parent="1" source="j-9qPvD1AJtOhM12_87O-207">
          <mxGeometry width="50" height="50" relative="1" as="geometry">
            <mxPoint x="-80" y="470" as="sourcePoint" />
            <mxPoint x="-30" y="420" as="targetPoint" />
          </mxGeometry>
        </mxCell>
        <mxCell id="SYhjhkv1CLO-JWM8SGGZ-1" value="" style="ellipse;whiteSpace=wrap;html=1;align=center;fontStyle=4;" vertex="1" parent="1">
          <mxGeometry x="120" y="365" width="70" height="40" as="geometry" />
        </mxCell>
        <mxCell id="SYhjhkv1CLO-JWM8SGGZ-2" value="" style="endArrow=none;html=1;rounded=0;exitX=1;exitY=0;exitDx=0;exitDy=0;" edge="1" parent="1" source="j-9qPvD1AJtOhM12_87O-77">
          <mxGeometry width="50" height="50" relative="1" as="geometry">
            <mxPoint x="70" y="440" as="sourcePoint" />
            <mxPoint x="120" y="390" as="targetPoint" />
          </mxGeometry>
        </mxCell>
        <mxCell id="SYhjhkv1CLO-JWM8SGGZ-5" value="user_id" style="ellipse;whiteSpace=wrap;html=1;align=center;fontStyle=0" vertex="1" parent="1">
          <mxGeometry x="105" y="365" width="100" height="40" as="geometry" />
        </mxCell>
        <mxCell id="SYhjhkv1CLO-JWM8SGGZ-6" value="" style="endArrow=none;html=1;rounded=0;exitX=0.5;exitY=1;exitDx=0;exitDy=0;" edge="1" parent="1" source="SYhjhkv1CLO-JWM8SGGZ-7">
          <mxGeometry width="50" height="50" relative="1" as="geometry">
            <mxPoint x="300" y="90" as="sourcePoint" />
            <mxPoint x="310" y="140" as="targetPoint" />
          </mxGeometry>
        </mxCell>
        <mxCell id="SYhjhkv1CLO-JWM8SGGZ-7" value="track_openingDate" style="ellipse;whiteSpace=wrap;html=1;" vertex="1" parent="1">
          <mxGeometry x="260" y="20" width="120" height="40" as="geometry" />
        </mxCell>
        <mxCell id="SYhjhkv1CLO-JWM8SGGZ-9" value="user_account" style="whiteSpace=wrap;html=1;align=center;" vertex="1" parent="1">
          <mxGeometry x="1000" y="500" width="100" height="40" as="geometry" />
        </mxCell>
        <mxCell id="SYhjhkv1CLO-JWM8SGGZ-10" value="role" style="ellipse;whiteSpace=wrap;html=1;align=center;" vertex="1" parent="1">
          <mxGeometry x="1120" y="385" width="100" height="40" as="geometry" />
        </mxCell>
        <mxCell id="SYhjhkv1CLO-JWM8SGGZ-11" value="user_password" style="ellipse;whiteSpace=wrap;html=1;align=center;" vertex="1" parent="1">
          <mxGeometry x="1150" y="445" width="100" height="40" as="geometry" />
        </mxCell>
        <mxCell id="SYhjhkv1CLO-JWM8SGGZ-12" value="user_id" style="ellipse;whiteSpace=wrap;html=1;align=center;" vertex="1" parent="1">
          <mxGeometry x="1090" y="320" width="100" height="35" as="geometry" />
        </mxCell>
        <mxCell id="SYhjhkv1CLO-JWM8SGGZ-13" value="user_gmail" style="ellipse;whiteSpace=wrap;html=1;align=center;" vertex="1" parent="1">
          <mxGeometry x="1175" y="520" width="100" height="40" as="geometry" />
        </mxCell>
        <mxCell id="SYhjhkv1CLO-JWM8SGGZ-14" value="user_name" style="ellipse;whiteSpace=wrap;html=1;align=center;" vertex="1" parent="1">
          <mxGeometry x="1060" y="250" width="100" height="40" as="geometry" />
        </mxCell>
        <mxCell id="SYhjhkv1CLO-JWM8SGGZ-15" value="" style="endArrow=none;html=1;rounded=0;exitX=1;exitY=0.25;exitDx=0;exitDy=0;" edge="1" parent="1" source="SYhjhkv1CLO-JWM8SGGZ-9">
          <mxGeometry width="50" height="50" relative="1" as="geometry">
            <mxPoint x="1030" y="340" as="sourcePoint" />
            <mxPoint x="1080" y="290" as="targetPoint" />
          </mxGeometry>
        </mxCell>
        <mxCell id="SYhjhkv1CLO-JWM8SGGZ-16" value="" style="endArrow=none;html=1;rounded=0;entryX=0;entryY=1;entryDx=0;entryDy=0;exitX=1;exitY=0.25;exitDx=0;exitDy=0;" edge="1" parent="1" source="SYhjhkv1CLO-JWM8SGGZ-9" target="SYhjhkv1CLO-JWM8SGGZ-12">
          <mxGeometry width="50" height="50" relative="1" as="geometry">
            <mxPoint x="1020" y="500" as="sourcePoint" />
            <mxPoint x="1070" y="450" as="targetPoint" />
          </mxGeometry>
        </mxCell>
        <mxCell id="SYhjhkv1CLO-JWM8SGGZ-17" value="" style="endArrow=none;html=1;rounded=0;entryX=0;entryY=1;entryDx=0;entryDy=0;exitX=1;exitY=0.5;exitDx=0;exitDy=0;" edge="1" parent="1" source="SYhjhkv1CLO-JWM8SGGZ-9" target="SYhjhkv1CLO-JWM8SGGZ-10">
          <mxGeometry width="50" height="50" relative="1" as="geometry">
            <mxPoint x="1040" y="500" as="sourcePoint" />
            <mxPoint x="1114" y="360" as="targetPoint" />
          </mxGeometry>
        </mxCell>
        <mxCell id="SYhjhkv1CLO-JWM8SGGZ-18" value="" style="endArrow=none;html=1;rounded=0;" edge="1" parent="1">
          <mxGeometry width="50" height="50" relative="1" as="geometry">
            <mxPoint x="1100" y="520" as="sourcePoint" />
            <mxPoint x="1150" y="470" as="targetPoint" />
          </mxGeometry>
        </mxCell>
        <mxCell id="SYhjhkv1CLO-JWM8SGGZ-19" value="" style="endArrow=none;html=1;rounded=0;" edge="1" parent="1">
          <mxGeometry width="50" height="50" relative="1" as="geometry">
            <mxPoint x="1100" y="520" as="sourcePoint" />
            <mxPoint x="1180" y="550" as="targetPoint" />
          </mxGeometry>
        </mxCell>
        <mxCell id="SYhjhkv1CLO-JWM8SGGZ-22" value="&#xa;owns&#xa;&#xa;" style="shape=rhombus;perimeter=rhombusPerimeter;whiteSpace=wrap;html=1;align=center;" vertex="1" parent="1">
          <mxGeometry x="790" y="480" width="100" height="50" as="geometry" />
        </mxCell>
        <mxCell id="SYhjhkv1CLO-JWM8SGGZ-23" value="belongs to" style="shape=rhombus;perimeter=rhombusPerimeter;whiteSpace=wrap;html=1;align=center;" vertex="1" parent="1">
          <mxGeometry x="740" y="620" width="100" height="50" as="geometry" />
        </mxCell>
        <mxCell id="SYhjhkv1CLO-JWM8SGGZ-26" value="" style="endArrow=none;html=1;rounded=0;exitX=1;exitY=0.5;exitDx=0;exitDy=0;" edge="1" parent="1" source="SYhjhkv1CLO-JWM8SGGZ-22">
          <mxGeometry width="50" height="50" relative="1" as="geometry">
            <mxPoint x="950" y="560" as="sourcePoint" />
            <mxPoint x="1000" y="510" as="targetPoint" />
          </mxGeometry>
        </mxCell>
        <mxCell id="SYhjhkv1CLO-JWM8SGGZ-27" value="" style="endArrow=none;html=1;rounded=0;exitX=1;exitY=0.5;exitDx=0;exitDy=0;" edge="1" parent="1" source="SYhjhkv1CLO-JWM8SGGZ-23">
          <mxGeometry width="50" height="50" relative="1" as="geometry">
            <mxPoint x="950" y="590" as="sourcePoint" />
            <mxPoint x="1000" y="540" as="targetPoint" />
          </mxGeometry>
        </mxCell>
        <mxCell id="SYhjhkv1CLO-JWM8SGGZ-28" value="user_id" style="ellipse;whiteSpace=wrap;html=1;align=center;" vertex="1" parent="1">
          <mxGeometry x="850" y="130" width="100" height="40" as="geometry" />
        </mxCell>
        <mxCell id="SYhjhkv1CLO-JWM8SGGZ-29" value="" style="endArrow=none;html=1;rounded=0;exitX=1;exitY=0.5;exitDx=0;exitDy=0;" edge="1" parent="1" source="j-9qPvD1AJtOhM12_87O-51">
          <mxGeometry width="50" height="50" relative="1" as="geometry">
            <mxPoint x="810" y="210" as="sourcePoint" />
            <mxPoint x="860" y="160" as="targetPoint" />
          </mxGeometry>
        </mxCell>
        <mxCell id="SYhjhkv1CLO-JWM8SGGZ-30" value="&lt;font size=&quot;3&quot;&gt;1&lt;/font&gt;" style="text;strokeColor=none;align=center;fillColor=none;html=1;verticalAlign=middle;whiteSpace=wrap;rounded=0;" vertex="1" parent="1">
          <mxGeometry x="710" y="345" width="60" height="30" as="geometry" />
        </mxCell>
        <mxCell id="SYhjhkv1CLO-JWM8SGGZ-31" value="&lt;font size=&quot;3&quot;&gt;1&lt;/font&gt;" style="text;strokeColor=none;align=center;fillColor=none;html=1;verticalAlign=middle;whiteSpace=wrap;rounded=0;" vertex="1" parent="1">
          <mxGeometry x="940" y="480" width="60" height="30" as="geometry" />
        </mxCell>
        <mxCell id="SYhjhkv1CLO-JWM8SGGZ-32" value="&lt;font size=&quot;3&quot;&gt;1&lt;/font&gt;" style="text;strokeColor=none;align=center;fillColor=none;html=1;verticalAlign=middle;whiteSpace=wrap;rounded=0;" vertex="1" parent="1">
          <mxGeometry x="870" y="560" width="60" height="30" as="geometry" />
        </mxCell>
        <mxCell id="SYhjhkv1CLO-JWM8SGGZ-33" value="&lt;font size=&quot;3&quot;&gt;1&lt;/font&gt;" style="text;strokeColor=none;align=center;fillColor=none;html=1;verticalAlign=middle;whiteSpace=wrap;rounded=0;" vertex="1" parent="1">
          <mxGeometry x="360" y="500" width="60" height="30" as="geometry" />
        </mxCell>
        <mxCell id="SYhjhkv1CLO-JWM8SGGZ-34" value="Topic" style="whiteSpace=wrap;html=1;align=center;" vertex="1" parent="1">
          <mxGeometry x="840" y="820" width="100" height="40" as="geometry" />
        </mxCell>
        <mxCell id="SYhjhkv1CLO-JWM8SGGZ-35" value="Topic_id" style="ellipse;whiteSpace=wrap;html=1;align=center;" vertex="1" parent="1">
          <mxGeometry x="1000" y="710" width="100" height="40" as="geometry" />
        </mxCell>
        <mxCell id="SYhjhkv1CLO-JWM8SGGZ-36" value="top_name" style="ellipse;whiteSpace=wrap;html=1;align=center;movable=1;resizable=1;rotatable=1;deletable=1;editable=1;locked=0;connectable=1;" vertex="1" parent="1">
          <mxGeometry x="1010" y="790" width="100" height="40" as="geometry" />
        </mxCell>
        <mxCell id="SYhjhkv1CLO-JWM8SGGZ-40" style="shape=link;rounded=0;orthogonalLoop=1;jettySize=auto;html=1;entryX=0;entryY=0.75;entryDx=0;entryDy=0;" edge="1" parent="1" source="SYhjhkv1CLO-JWM8SGGZ-37" target="SYhjhkv1CLO-JWM8SGGZ-34">
          <mxGeometry relative="1" as="geometry" />
        </mxCell>
        <mxCell id="SYhjhkv1CLO-JWM8SGGZ-37" value="covers" style="shape=rhombus;perimeter=rhombusPerimeter;whiteSpace=wrap;html=1;align=center;" vertex="1" parent="1">
          <mxGeometry x="650" y="780" width="100" height="50" as="geometry" />
        </mxCell>
        <mxCell id="SYhjhkv1CLO-JWM8SGGZ-38" value="" style="endArrow=none;html=1;rounded=0;exitX=0.75;exitY=0;exitDx=0;exitDy=0;" edge="1" parent="1" source="SYhjhkv1CLO-JWM8SGGZ-34">
          <mxGeometry width="50" height="50" relative="1" as="geometry">
            <mxPoint x="910" y="800" as="sourcePoint" />
            <mxPoint x="1010" y="740" as="targetPoint" />
          </mxGeometry>
        </mxCell>
        <mxCell id="SYhjhkv1CLO-JWM8SGGZ-39" value="" style="endArrow=none;html=1;rounded=0;exitX=0.82;exitY=0.025;exitDx=0;exitDy=0;exitPerimeter=0;entryX=0;entryY=0.5;entryDx=0;entryDy=0;" edge="1" parent="1" source="SYhjhkv1CLO-JWM8SGGZ-34" target="SYhjhkv1CLO-JWM8SGGZ-36">
          <mxGeometry width="50" height="50" relative="1" as="geometry">
            <mxPoint x="940" y="890" as="sourcePoint" />
            <mxPoint x="990" y="840" as="targetPoint" />
            <Array as="points">
              <mxPoint x="1010" y="810" />
            </Array>
          </mxGeometry>
        </mxCell>
        <mxCell id="SYhjhkv1CLO-JWM8SGGZ-41" value="" style="endArrow=none;html=1;rounded=0;exitX=1;exitY=0.5;exitDx=0;exitDy=0;" edge="1" parent="1" source="j-9qPvD1AJtOhM12_87O-56">
          <mxGeometry width="50" height="50" relative="1" as="geometry">
            <mxPoint x="600" y="860" as="sourcePoint" />
            <mxPoint x="650" y="810" as="targetPoint" />
          </mxGeometry>
        </mxCell>
        <mxCell id="SYhjhkv1CLO-JWM8SGGZ-42" value="&lt;font size=&quot;3&quot;&gt;M&lt;/font&gt;" style="text;strokeColor=none;align=center;fillColor=none;html=1;verticalAlign=middle;whiteSpace=wrap;rounded=0;" vertex="1" parent="1">
          <mxGeometry x="750" y="845" width="60" height="30" as="geometry" />
        </mxCell>
        <mxCell id="SYhjhkv1CLO-JWM8SGGZ-43" value="&lt;font size=&quot;3&quot;&gt;1&lt;/font&gt;" style="text;strokeColor=none;align=center;fillColor=none;html=1;verticalAlign=middle;whiteSpace=wrap;rounded=0;" vertex="1" parent="1">
          <mxGeometry x="540" y="770" width="60" height="30" as="geometry" />
        </mxCell>
        <mxCell id="SYhjhkv1CLO-JWM8SGGZ-44" value="Topic_id" style="ellipse;whiteSpace=wrap;html=1;align=center;movable=1;resizable=1;rotatable=1;deletable=1;editable=1;locked=0;connectable=1;" vertex="1" parent="1">
          <mxGeometry x="540" y="920" width="100" height="40" as="geometry" />
        </mxCell>
        <mxCell id="SYhjhkv1CLO-JWM8SGGZ-45" value="" style="endArrow=none;html=1;rounded=0;" edge="1" parent="1">
          <mxGeometry width="50" height="50" relative="1" as="geometry">
            <mxPoint x="480" y="830" as="sourcePoint" />
            <mxPoint x="580" y="920" as="targetPoint" />
          </mxGeometry>
        </mxCell>
        <mxCell id="SYhjhkv1CLO-JWM8SGGZ-46" value="student_course_grade" style="ellipse;whiteSpace=wrap;html=1;" vertex="1" parent="1">
          <mxGeometry x="80" y="680" width="120" height="50" as="geometry" />
        </mxCell>
        <mxCell id="SYhjhkv1CLO-JWM8SGGZ-47" value="" style="endArrow=none;html=1;rounded=0;exitX=0.5;exitY=0;exitDx=0;exitDy=0;entryX=0.5;entryY=1;entryDx=0;entryDy=0;" edge="1" parent="1" source="SYhjhkv1CLO-JWM8SGGZ-46" target="j-9qPvD1AJtOhM12_87O-86">
          <mxGeometry width="50" height="50" relative="1" as="geometry">
            <mxPoint x="170" y="880" as="sourcePoint" />
            <mxPoint x="220" y="830" as="targetPoint" />
          </mxGeometry>
        </mxCell>
        <mxCell id="SYhjhkv1CLO-JWM8SGGZ-48" value="Ex_degree" style="ellipse;whiteSpace=wrap;html=1;align=center;" vertex="1" parent="1">
          <mxGeometry x="-270" y="930" width="80" height="40" as="geometry" />
        </mxCell>
        <mxCell id="SYhjhkv1CLO-JWM8SGGZ-49" value="" style="endArrow=none;html=1;rounded=0;" edge="1" parent="1">
          <mxGeometry width="50" height="50" relative="1" as="geometry">
            <mxPoint x="-150" y="850" as="sourcePoint" />
            <mxPoint x="-70" y="830" as="targetPoint" />
          </mxGeometry>
        </mxCell>
        <mxCell id="SYhjhkv1CLO-JWM8SGGZ-53" value="" style="endArrow=none;html=1;rounded=0;exitX=1;exitY=0;exitDx=0;exitDy=0;entryX=0.5;entryY=1;entryDx=0;entryDy=0;" edge="1" parent="1" source="j-9qPvD1AJtOhM12_87O-203" target="j-9qPvD1AJtOhM12_87O-161">
          <mxGeometry width="50" height="50" relative="1" as="geometry">
            <mxPoint x="50" y="1200" as="sourcePoint" />
            <mxPoint x="100" y="1150" as="targetPoint" />
          </mxGeometry>
        </mxCell>
        <mxCell id="SYhjhkv1CLO-JWM8SGGZ-54" value="" style="endArrow=none;html=1;rounded=0;" edge="1" parent="1" source="j-9qPvD1AJtOhM12_87O-199">
          <mxGeometry width="50" height="50" relative="1" as="geometry">
            <mxPoint x="80" y="1200" as="sourcePoint" />
            <mxPoint x="130" y="1150" as="targetPoint" />
          </mxGeometry>
        </mxCell>
        <mxCell id="SYhjhkv1CLO-JWM8SGGZ-55" value="" style="endArrow=none;html=1;rounded=0;exitX=0;exitY=0.5;exitDx=0;exitDy=0;" edge="1" parent="1" source="j-9qPvD1AJtOhM12_87O-198">
          <mxGeometry width="50" height="50" relative="1" as="geometry">
            <mxPoint x="120" y="1200" as="sourcePoint" />
            <mxPoint x="130" y="1150" as="targetPoint" />
          </mxGeometry>
        </mxCell>
        <mxCell id="SYhjhkv1CLO-JWM8SGGZ-56" value="&#xa;Degree&#xa;&#xa;" style="ellipse;whiteSpace=wrap;html=1;" vertex="1" parent="1">
          <mxGeometry x="-160" y="1010" width="120" height="40" as="geometry" />
        </mxCell>
        <mxCell id="SYhjhkv1CLO-JWM8SGGZ-57" value="" style="endArrow=none;html=1;rounded=0;exitX=0;exitY=0;exitDx=0;exitDy=0;entryX=0;entryY=0.5;entryDx=0;entryDy=0;" edge="1" parent="1" source="SYhjhkv1CLO-JWM8SGGZ-56" target="SYhjhkv1CLO-JWM8SGGZ-63">
          <mxGeometry width="50" height="50" relative="1" as="geometry">
            <mxPoint x="80" y="1200" as="sourcePoint" />
            <mxPoint x="130" y="1150" as="targetPoint" />
          </mxGeometry>
        </mxCell>
        <mxCell id="SYhjhkv1CLO-JWM8SGGZ-58" value="associate" style="shape=rhombus;perimeter=rhombusPerimeter;whiteSpace=wrap;html=1;align=center;" vertex="1" parent="1">
          <mxGeometry x="155" y="960" width="100" height="50" as="geometry" />
        </mxCell>
        <mxCell id="SYhjhkv1CLO-JWM8SGGZ-59" value="" style="endArrow=none;html=1;rounded=0;exitX=0.64;exitY=-0.1;exitDx=0;exitDy=0;exitPerimeter=0;shape=link;entryX=0.43;entryY=0.94;entryDx=0;entryDy=0;entryPerimeter=0;" edge="1" parent="1" source="j-9qPvD1AJtOhM12_87O-161" target="SYhjhkv1CLO-JWM8SGGZ-58">
          <mxGeometry width="50" height="50" relative="1" as="geometry">
            <mxPoint x="120" y="1110" as="sourcePoint" />
            <mxPoint x="170" y="1060" as="targetPoint" />
          </mxGeometry>
        </mxCell>
        <mxCell id="SYhjhkv1CLO-JWM8SGGZ-60" value="" style="endArrow=none;html=1;rounded=0;entryX=0;entryY=0.75;entryDx=0;entryDy=0;" edge="1" parent="1" target="j-9qPvD1AJtOhM12_87O-56">
          <mxGeometry width="50" height="50" relative="1" as="geometry">
            <mxPoint x="200" y="960" as="sourcePoint" />
            <mxPoint x="250" y="910" as="targetPoint" />
          </mxGeometry>
        </mxCell>
        <mxCell id="SYhjhkv1CLO-JWM8SGGZ-61" value="&lt;font size=&quot;3&quot;&gt;M&lt;/font&gt;" style="text;strokeColor=none;align=center;fillColor=none;html=1;verticalAlign=middle;whiteSpace=wrap;rounded=0;" vertex="1" parent="1">
          <mxGeometry x="-270" y="1200" width="60" height="30" as="geometry" />
        </mxCell>
        <mxCell id="SYhjhkv1CLO-JWM8SGGZ-62" value="&lt;font size=&quot;3&quot;&gt;1&lt;/font&gt;" style="text;strokeColor=none;align=center;fillColor=none;html=1;verticalAlign=middle;whiteSpace=wrap;rounded=0;" vertex="1" parent="1">
          <mxGeometry x="290" y="835" width="60" height="30" as="geometry" />
        </mxCell>
        <mxCell id="SYhjhkv1CLO-JWM8SGGZ-64" style="shape=link;rounded=0;orthogonalLoop=1;jettySize=auto;html=1;" edge="1" parent="1" source="SYhjhkv1CLO-JWM8SGGZ-63">
          <mxGeometry relative="1" as="geometry">
            <mxPoint x="-20" y="830" as="targetPoint" />
          </mxGeometry>
        </mxCell>
        <mxCell id="SYhjhkv1CLO-JWM8SGGZ-63" value="contain" style="shape=rhombus;perimeter=rhombusPerimeter;whiteSpace=wrap;html=1;align=center;" vertex="1" parent="1">
          <mxGeometry x="20" y="970" width="100" height="50" as="geometry" />
        </mxCell>
        <mxCell id="SYhjhkv1CLO-JWM8SGGZ-65" value="" style="endArrow=none;html=1;rounded=0;" edge="1" parent="1">
          <mxGeometry width="50" height="50" relative="1" as="geometry">
            <mxPoint x="90" y="1100" as="sourcePoint" />
            <mxPoint x="70" y="1020" as="targetPoint" />
          </mxGeometry>
        </mxCell>
        <mxCell id="SYhjhkv1CLO-JWM8SGGZ-66" value="&lt;font size=&quot;3&quot;&gt;M&lt;/font&gt;" style="text;strokeColor=none;align=center;fillColor=none;html=1;verticalAlign=middle;whiteSpace=wrap;rounded=0;" vertex="1" parent="1">
          <mxGeometry y="850" width="60" height="30" as="geometry" />
        </mxCell>
        <mxCell id="SYhjhkv1CLO-JWM8SGGZ-67" value="N" style="text;strokeColor=none;align=center;fillColor=none;html=1;verticalAlign=middle;whiteSpace=wrap;rounded=0;" vertex="1" parent="1">
          <mxGeometry x="-50" y="1120" width="60" height="30" as="geometry" />
        </mxCell>
        <mxCell id="SYhjhkv1CLO-JWM8SGGZ-68" value="" style="endArrow=none;html=1;rounded=0;exitX=1;exitY=0;exitDx=0;exitDy=0;" edge="1" parent="1" source="j-9qPvD1AJtOhM12_87O-160">
          <mxGeometry width="50" height="50" relative="1" as="geometry">
            <mxPoint x="-260" y="1230" as="sourcePoint" />
            <mxPoint x="-210" y="1180" as="targetPoint" />
          </mxGeometry>
        </mxCell>
        <mxCell id="SYhjhkv1CLO-JWM8SGGZ-69" value="" style="endArrow=none;html=1;rounded=0;exitX=0.94;exitY=0.5;exitDx=0;exitDy=0;exitPerimeter=0;shape=link;" edge="1" parent="1" source="j-9qPvD1AJtOhM12_87O-191">
          <mxGeometry width="50" height="50" relative="1" as="geometry">
            <mxPoint x="30" y="1180" as="sourcePoint" />
            <mxPoint x="80" y="1130" as="targetPoint" />
          </mxGeometry>
        </mxCell>
        <mxCell id="SYhjhkv1CLO-JWM8SGGZ-70" value="" style="endArrow=none;html=1;rounded=0;" edge="1" parent="1" source="j-9qPvD1AJtOhM12_87O-164">
          <mxGeometry width="50" height="50" relative="1" as="geometry">
            <mxPoint x="-400" y="1310" as="sourcePoint" />
            <mxPoint x="-350" y="1260" as="targetPoint" />
          </mxGeometry>
        </mxCell>
        <mxCell id="SYhjhkv1CLO-JWM8SGGZ-71" value="" style="endArrow=none;html=1;rounded=0;exitX=0.388;exitY=0.1;exitDx=0;exitDy=0;exitPerimeter=0;" edge="1" parent="1">
          <mxGeometry width="50" height="50" relative="1" as="geometry">
            <mxPoint x="-268.96000000000004" y="1324" as="sourcePoint" />
            <mxPoint x="-350" y="1260" as="targetPoint" />
          </mxGeometry>
        </mxCell>
        <mxCell id="SYhjhkv1CLO-JWM8SGGZ-73" value="Q_id" style="ellipse;whiteSpace=wrap;html=1;align=center;" vertex="1" parent="1">
          <mxGeometry x="-510" y="1280" width="100" height="40" as="geometry" />
        </mxCell>
        <mxCell id="SYhjhkv1CLO-JWM8SGGZ-74" value="" style="endArrow=none;html=1;rounded=0;exitX=1;exitY=0;exitDx=0;exitDy=0;" edge="1" parent="1" source="SYhjhkv1CLO-JWM8SGGZ-73">
          <mxGeometry width="50" height="50" relative="1" as="geometry">
            <mxPoint x="-400" y="1310" as="sourcePoint" />
            <mxPoint x="-350" y="1260" as="targetPoint" />
          </mxGeometry>
        </mxCell>
        <mxCell id="SYhjhkv1CLO-JWM8SGGZ-75" value="&lt;font size=&quot;3&quot;&gt;M&lt;/font&gt;" style="text;strokeColor=none;align=center;fillColor=none;html=1;verticalAlign=middle;whiteSpace=wrap;rounded=0;" vertex="1" parent="1">
          <mxGeometry x="188" y="1050" width="60" height="30" as="geometry" />
        </mxCell>
        <mxCell id="SYhjhkv1CLO-JWM8SGGZ-76" value="&lt;font size=&quot;3&quot;&gt;1&lt;/font&gt;" style="text;strokeColor=none;align=center;fillColor=none;html=1;verticalAlign=middle;whiteSpace=wrap;rounded=0;" vertex="1" parent="1">
          <mxGeometry x="-110" y="1240" width="60" height="30" as="geometry" />
        </mxCell>
        <mxCell id="SYhjhkv1CLO-JWM8SGGZ-77" value="Crs_id" style="ellipse;whiteSpace=wrap;html=1;align=center;" vertex="1" parent="1">
          <mxGeometry x="330" y="1100" width="80" height="40" as="geometry" />
        </mxCell>
        <mxCell id="SYhjhkv1CLO-JWM8SGGZ-78" value="" style="endArrow=none;html=1;rounded=0;" edge="1" parent="1" source="j-9qPvD1AJtOhM12_87O-161">
          <mxGeometry width="50" height="50" relative="1" as="geometry">
            <mxPoint x="280" y="1170" as="sourcePoint" />
            <mxPoint x="330" y="1120" as="targetPoint" />
          </mxGeometry>
        </mxCell>
        <mxCell id="SYhjhkv1CLO-JWM8SGGZ-79" value="N" style="text;strokeColor=none;align=center;fillColor=none;html=1;verticalAlign=middle;whiteSpace=wrap;rounded=0;" vertex="1" parent="1">
          <mxGeometry x="30" y="1050" width="60" height="30" as="geometry" />
        </mxCell>
        <mxCell id="SYhjhkv1CLO-JWM8SGGZ-80" value="correct_answer" style="shape=rhombus;perimeter=rhombusPerimeter;whiteSpace=wrap;html=1;align=center;" vertex="1" parent="1">
          <mxGeometry x="-200" y="1250" width="100" height="50" as="geometry" />
        </mxCell>
        <mxCell id="SYhjhkv1CLO-JWM8SGGZ-81" value="" style="endArrow=none;html=1;rounded=0;exitX=1;exitY=1;exitDx=0;exitDy=0;" edge="1" parent="1" source="j-9qPvD1AJtOhM12_87O-160">
          <mxGeometry width="50" height="50" relative="1" as="geometry">
            <mxPoint x="-250" y="1320" as="sourcePoint" />
            <mxPoint x="-200" y="1270" as="targetPoint" />
          </mxGeometry>
        </mxCell>
        <mxCell id="SYhjhkv1CLO-JWM8SGGZ-82" value="" style="endArrow=none;html=1;rounded=0;" edge="1" parent="1" source="SYhjhkv1CLO-JWM8SGGZ-80">
          <mxGeometry width="50" height="50" relative="1" as="geometry">
            <mxPoint x="30" y="1200" as="sourcePoint" />
            <mxPoint x="80" y="1150" as="targetPoint" />
          </mxGeometry>
        </mxCell>
        <mxCell id="SYhjhkv1CLO-JWM8SGGZ-83" value="&lt;font size=&quot;3&quot;&gt;M&lt;/font&gt;" style="text;strokeColor=none;align=center;fillColor=none;html=1;verticalAlign=middle;whiteSpace=wrap;rounded=0;" vertex="1" parent="1">
          <mxGeometry x="-260" y="1280" width="60" height="30" as="geometry" />
        </mxCell>
        <mxCell id="SYhjhkv1CLO-JWM8SGGZ-85" value="StudentAnswer_question" style="shape=rhombus;perimeter=rhombusPerimeter;whiteSpace=wrap;html=1;align=center;" vertex="1" parent="1">
          <mxGeometry x="-620" y="885" width="180" height="110" as="geometry" />
        </mxCell>
        <mxCell id="SYhjhkv1CLO-JWM8SGGZ-86" value="" style="endArrow=none;html=1;rounded=0;shape=link;" edge="1" parent="1" source="SYhjhkv1CLO-JWM8SGGZ-85">
          <mxGeometry width="50" height="50" relative="1" as="geometry">
            <mxPoint x="-170" y="840" as="sourcePoint" />
            <mxPoint x="-120" y="790" as="targetPoint" />
          </mxGeometry>
        </mxCell>
        <mxCell id="SYhjhkv1CLO-JWM8SGGZ-89" value="" style="endArrow=none;html=1;rounded=0;entryX=0;entryY=1;entryDx=0;entryDy=0;shape=link;" edge="1" parent="1" target="j-9qPvD1AJtOhM12_87O-77">
          <mxGeometry width="50" height="50" relative="1" as="geometry">
            <mxPoint x="-510" y="890" as="sourcePoint" />
            <mxPoint x="-200" y="520" as="targetPoint" />
          </mxGeometry>
        </mxCell>
        <mxCell id="SYhjhkv1CLO-JWM8SGGZ-91" value="&lt;font size=&quot;3&quot;&gt;M&lt;/font&gt;" style="text;strokeColor=none;align=center;fillColor=none;html=1;verticalAlign=middle;whiteSpace=wrap;rounded=0;" vertex="1" parent="1">
          <mxGeometry x="-360" y="830" width="60" height="30" as="geometry" />
        </mxCell>
        <mxCell id="SYhjhkv1CLO-JWM8SGGZ-92" value="N" style="text;strokeColor=none;align=center;fillColor=none;html=1;verticalAlign=middle;whiteSpace=wrap;rounded=0;" vertex="1" parent="1">
          <mxGeometry x="-310" y="630" width="60" height="30" as="geometry" />
        </mxCell>
        <mxCell id="SYhjhkv1CLO-JWM8SGGZ-93" value="" style="fontSize=12;html=1;endArrow=ERmany;startArrow=ERmany;rounded=0;exitX=0;exitY=0;exitDx=0;exitDy=0;" edge="1" parent="1" source="j-9qPvD1AJtOhM12_87O-160">
          <mxGeometry width="100" height="100" relative="1" as="geometry">
            <mxPoint x="-590" y="1210" as="sourcePoint" />
            <mxPoint x="-530" y="1000" as="targetPoint" />
          </mxGeometry>
        </mxCell>
        <mxCell id="SYhjhkv1CLO-JWM8SGGZ-94" value="" style="fontSize=12;html=1;endArrow=ERoneToMany;startArrow=ERoneToMany;rounded=0;entryX=0;entryY=0.25;entryDx=0;entryDy=0;" edge="1" parent="1" target="j-9qPvD1AJtOhM12_87O-161">
          <mxGeometry width="100" height="100" relative="1" as="geometry">
            <mxPoint x="-480" y="965" as="sourcePoint" />
            <mxPoint x="-380" y="865" as="targetPoint" />
          </mxGeometry>
        </mxCell>
        <mxCell id="SYhjhkv1CLO-JWM8SGGZ-95" value="&lt;font size=&quot;3&quot;&gt;M&lt;/font&gt;" style="text;strokeColor=none;align=center;fillColor=none;html=1;verticalAlign=middle;whiteSpace=wrap;rounded=0;" vertex="1" parent="1">
          <mxGeometry x="-570" y="845" width="60" height="30" as="geometry" />
        </mxCell>
      </root>
    </mxGraphModel>
  </diagram>
</mxfile>
